<svg width="30" height="30" viewBox="0 0 30 30" fill="none" xmlns="http://www.w3.org/2000/svg">
<path d="M8.75 8.75H8.7625M8.75 3.75H15C15.64 3.75 16.28 3.99375 16.7675 4.4825L25.5175 13.2325C25.9862 13.7013 26.2495 14.3371 26.2495 15C26.2495 15.6629 25.9862 16.2987 25.5175 16.7675L16.7675 25.5175C16.2987 25.9862 15.6629 26.2495 15 26.2495C14.3371 26.2495 13.7013 25.9862 13.2325 25.5175L4.4825 16.7675C4.25001 16.5357 4.06561 16.2602 3.9399 15.9568C3.8142 15.6535 3.74966 15.3283 3.75 15V8.75C3.75 7.42392 4.27679 6.15215 5.21447 5.21447C6.15215 4.27678 7.42392 3.75 8.75 3.75Z" stroke="#514766" stroke-width="2" stroke-linecap="round" stroke-linejoin="round"/>
</svg>
