<svg width="30" height="30" viewBox="0 0 30 30" fill="none" xmlns="http://www.w3.org/2000/svg">
<path d="M5.73223 5.73223C5.26339 6.20107 5 6.83696 5 7.5V10C5 10.663 5.26339 11.2989 5.73223 11.7678C6.20107 12.2366 6.83696 12.5 7.5 12.5H10C10.663 12.5 11.2989 12.2366 11.7678 11.7678C12.2366 11.2989 12.5 10.663 12.5 10V7.5C12.5 6.83696 12.2366 6.20107 11.7678 5.73223C11.2989 5.26339 10.663 5 10 5H7.5C6.83696 5 6.20107 5.26339 5.73223 5.73223Z" stroke="#514766" stroke-width="2" stroke-linecap="round" stroke-linejoin="round"/>
<path d="M18.2322 5.73223C17.7634 6.20107 17.5 6.83696 17.5 7.5V10C17.5 10.663 17.7634 11.2989 18.2322 11.7678C18.7011 12.2366 19.337 12.5 20 12.5H22.5C23.163 12.5 23.7989 12.2366 24.2678 11.7678C24.7366 11.2989 25 10.663 25 10V7.5C25 6.83696 24.7366 6.20107 24.2678 5.73223C23.7989 5.26339 23.163 5 22.5 5H20C19.337 5 18.7011 5.26339 18.2322 5.73223Z" stroke="#514766" stroke-width="2" stroke-linecap="round" stroke-linejoin="round"/>
<path d="M5.73223 18.2322C5.26339 18.7011 5 19.337 5 20V22.5C5 23.163 5.26339 23.7989 5.73223 24.2678C6.20107 24.7366 6.83696 25 7.5 25H10C10.663 25 11.2989 24.7366 11.7678 24.2678C12.2366 23.7989 12.5 23.163 12.5 22.5V20C12.5 19.337 12.2366 18.7011 11.7678 18.2322C11.2989 17.7634 10.663 17.5 10 17.5H7.5C6.83696 17.5 6.20107 17.7634 5.73223 18.2322Z" stroke="#514766" stroke-width="2" stroke-linecap="round" stroke-linejoin="round"/>
<path d="M18.2322 18.2322C17.7634 18.7011 17.5 19.337 17.5 20V22.5C17.5 23.163 17.7634 23.7989 18.2322 24.2678C18.7011 24.7366 19.337 25 20 25H22.5C23.163 25 23.7989 24.7366 24.2678 24.2678C24.7366 23.7989 25 23.163 25 22.5V20C25 19.337 24.7366 18.7011 24.2678 18.2322C23.7989 17.7634 23.163 17.5 22.5 17.5H20C19.337 17.5 18.7011 17.7634 18.2322 18.2322Z" stroke="#514766" stroke-width="2" stroke-linecap="round" stroke-linejoin="round"/>
</svg>
